<svg width="21" height="20" viewBox="0 0 21 20" fill="none" xmlns="http://www.w3.org/2000/svg">
<path d="M13.5 1V10C13.5 11.1 12.6 12 11.5 12H0.5V4C0.5 1.79 2.29 0 4.5 0H12.5C13.05 0 13.5 0.45 13.5 1Z" fill="#8091B3"/>
<path opacity="0.4" d="M20.5 12V15C20.5 16.66 19.16 18 17.5 18H16.5C16.5 16.9 15.6 16 14.5 16C13.4 16 12.5 16.9 12.5 18H8.5C8.5 16.9 7.6 16 6.5 16C5.4 16 4.5 16.9 4.5 18H3.5C1.84 18 0.5 16.66 0.5 15V12H11.5C12.6 12 13.5 11.1 13.5 10V3H15.34C16.06 3 16.72 3.39001 17.08 4.01001L18.79 7H17.5C16.95 7 16.5 7.45 16.5 8V11C16.5 11.55 16.95 12 17.5 12H20.5Z" fill="#8091B3"/>
<path d="M6.5 20C7.60457 20 8.5 19.1046 8.5 18C8.5 16.8954 7.60457 16 6.5 16C5.39543 16 4.5 16.8954 4.5 18C4.5 19.1046 5.39543 20 6.5 20Z" fill="#8091B3"/>
<path d="M14.5 20C15.6046 20 16.5 19.1046 16.5 18C16.5 16.8954 15.6046 16 14.5 16C13.3954 16 12.5 16.8954 12.5 18C12.5 19.1046 13.3954 20 14.5 20Z" fill="#8091B3"/>
<path d="M20.5 10.53V12H17.5C16.95 12 16.5 11.55 16.5 11V8C16.5 7.45 16.95 7 17.5 7H18.79L20.24 9.53998C20.41 9.83998 20.5 10.18 20.5 10.53Z" fill="#8091B3"/>
</svg>
