<svg width="21" height="20" viewBox="0 0 21 20" fill="none" xmlns="http://www.w3.org/2000/svg">
<path opacity="0.3" d="M9.07003 0.820104L2.14002 6.37009C1.36002 6.99009 0.860021 8.3001 1.03002 9.2801L2.36002 17.2401C2.60002 18.6601 3.96002 19.8101 5.40002 19.8101H16.6C18.03 19.8101 19.4 18.6501 19.64 17.2401L20.97 9.2801C21.13 8.3001 20.63 6.99009 19.86 6.37009L12.93 0.830083C11.86 -0.0299171 10.13 -0.0298963 9.07003 0.820104Z" fill="#8091B3"/>
<path d="M11 13.5C12.3807 13.5 13.5 12.3807 13.5 11C13.5 9.61929 12.3807 8.5 11 8.5C9.61929 8.5 8.5 9.61929 8.5 11C8.5 12.3807 9.61929 13.5 11 13.5Z" fill="#8091B3"/>
</svg>
