<svg width="21" height="21" viewBox="0 0 21 21" fill="none" xmlns="http://www.w3.org/2000/svg">
<path d="M20.5 4.00008V6.42008C20.5 8.00008 19.5 9.00008 17.92 9.00008H14.5V2.01008C14.5 0.900082 15.41 -0.00991836 16.52 8.16377e-05C17.61 0.0100816 18.61 0.450082 19.33 1.17008C20.05 1.90008 20.5 2.90008 20.5 4.00008Z" fill="#8091B3"/>
<path opacity="0.3" d="M0.5 5V19C0.5 19.83 1.44 20.3 2.1 19.8L3.81 18.52C4.21 18.22 4.77 18.26 5.13 18.62L6.79 20.29C7.18 20.68 7.82 20.68 8.21 20.29L9.89 18.61C10.24 18.26 10.8 18.22 11.19 18.52L12.9 19.8C13.56 20.29 14.5 19.82 14.5 19V2C14.5 0.9 15.4 0 16.5 0H5.5H4.5C1.5 0 0.5 1.79 0.5 4V5Z" fill="#8091B3"/>
<path d="M10.5 10.26H7.5C7.09 10.26 6.75 10.6 6.75 11.01C6.75 11.42 7.09 11.76 7.5 11.76H10.5C10.91 11.76 11.25 11.42 11.25 11.01C11.25 10.6 10.91 10.26 10.5 10.26Z" fill="#8091B3"/>
<path d="M7.5 7.76001H10.5C10.91 7.76001 11.25 7.42001 11.25 7.01001C11.25 6.60001 10.91 6.26001 10.5 6.26001H7.5C7.09 6.26001 6.75 6.60001 6.75 7.01001C6.75 7.42001 7.09 7.76001 7.5 7.76001Z" fill="#8091B3"/>
<path d="M4.46997 6.01001C3.90997 6.01001 3.46997 6.46001 3.46997 7.01001C3.46997 7.56001 3.91997 8.01001 4.46997 8.01001C5.01997 8.01001 5.46997 7.56001 5.46997 7.01001C5.46997 6.46001 5.01997 6.01001 4.46997 6.01001Z" fill="#8091B3"/>
<path d="M4.46997 10.01C3.90997 10.01 3.46997 10.46 3.46997 11.01C3.46997 11.56 3.91997 12.01 4.46997 12.01C5.01997 12.01 5.46997 11.56 5.46997 11.01C5.46997 10.46 5.01997 10.01 4.46997 10.01Z" fill="#8091B3"/>
</svg>
