<svg width="21" height="20" viewBox="0 0 21 20" fill="none" xmlns="http://www.w3.org/2000/svg">
<path opacity="0.3" d="M10.5 20C16.0228 20 20.5 15.5228 20.5 10C20.5 4.47715 16.0228 0 10.5 0C4.97715 0 0.5 4.47715 0.5 10C0.5 15.5228 4.97715 20 10.5 20Z" fill="#8091B3"/>
<path d="M14.2099 13.93C14.0799 13.93 13.9499 13.9 13.8299 13.82L10.7299 11.97C9.95989 11.51 9.38989 10.5 9.38989 9.61001V5.51001C9.38989 5.10001 9.72989 4.76001 10.1399 4.76001C10.5499 4.76001 10.8899 5.10001 10.8899 5.51001V9.61001C10.8899 9.97001 11.1899 10.5 11.4999 10.68L14.5999 12.53C14.9599 12.74 15.0699 13.2 14.8599 13.56C14.7099 13.8 14.4599 13.93 14.2099 13.93Z" fill="#8091B3"/>
</svg>
