<svg width="17" height="20" viewBox="0 0 17 20" fill="none" xmlns="http://www.w3.org/2000/svg">
<path d="M16.4193 16.4932L15.5262 5.23894C15.4708 4.51382 14.8573 3.94604 14.1303 3.94604L12.366 3.94604L12.366 6.55999C12.366 6.8837 12.104 7.14573 11.7803 7.14573C11.457 7.14573 11.1946 6.8837 11.1946 6.55999L11.1946 3.94604L5.80584 3.94604L5.80584 6.55999C5.80584 6.8837 5.54342 7.14573 5.2201 7.14573C4.89639 7.14573 4.63436 6.8837 4.63436 6.55999L4.63436 3.94604L2.87014 3.94604C2.14307 3.94604 1.52959 4.51382 1.47416 5.23737L0.580728 16.4948C0.511626 17.3964 0.824399 18.2937 1.43862 18.9568C2.05288 19.6198 2.92366 20.0005 3.82764 20.0005L13.1728 20.0005C14.0768 20.0005 14.9476 19.6198 15.5618 18.9567C16.176 18.2937 16.4888 17.3964 16.4193 16.4932ZM11.1391 10.762L8.10971 13.7914C7.9953 13.9058 7.84533 13.9632 7.69541 13.9632C7.54545 13.9632 7.39553 13.9058 7.28112 13.7914L5.86131 12.3716C5.63248 12.1428 5.63248 11.7722 5.86131 11.5434C6.09014 11.3145 6.46112 11.3145 6.68955 11.5434L7.69545 12.5489L10.3109 9.93339C10.5394 9.70495 10.9103 9.70495 11.1392 9.93339C11.368 10.1622 11.368 10.5332 11.1391 10.762Z" fill="#135FDC"/>
<path d="M8.50059 -0.00317383C6.36891 -0.00317383 4.63477 1.73136 4.63477 3.86304L4.63477 3.94229L5.80625 3.94229L5.80625 3.86304C5.80625 2.37722 7.0148 1.16827 8.50063 1.16827C9.98645 1.16827 11.195 2.37722 11.195 3.86304L11.195 3.94229L12.3664 3.94229L12.3664 3.86304C12.3664 1.73136 10.6323 -0.00317383 8.50059 -0.00317383Z" fill="#135FDC"/>
</svg>
