<svg width="14" height="12" viewBox="0 0 14 12" fill="none" xmlns="http://www.w3.org/2000/svg">
<path d="M13.1797 6.69006H11.3183V4.90106H13.1797C13.4594 4.90106 13.6862 4.67456 13.6862 4.39481C13.6862 4.11502 13.4594 3.88838 13.1797 3.88838H11.3183V1.40606C11.3183 1.04371 11.2467 0.777747 11.1055 0.615736C10.9714 0.461611 10.795 0.389893 10.5507 0.389893C10.3177 0.389893 10.1479 0.461116 10.0164 0.614279C9.87687 0.776455 9.80606 1.04291 9.80606 1.40623V3.88869H6.30457L4.81578 1.63581C4.68836 1.43475 4.56856 1.24641 4.45222 1.06564C4.34747 0.902827 4.24531 0.770273 4.1488 0.671296C4.06337 0.583669 3.96602 0.515852 3.85215 0.463726C3.74471 0.414678 3.60812 0.390057 3.44652 0.390057C3.2404 0.390057 3.0533 0.446525 2.87415 0.562538C2.69686 0.677287 2.57431 0.819156 2.49945 0.99628C2.43375 1.16461 2.39899 1.42255 2.39899 1.7555V3.88852H0.556035C0.27639 3.88855 0.0498047 4.11519 0.0498047 4.39494C0.0498047 4.6747 0.27639 4.9012 0.556062 4.9012H2.39902V6.69039H0.556062C0.27639 6.69039 0.0498047 6.91697 0.0498047 7.19681C0.0498047 7.47648 0.27639 7.7029 0.556062 7.7029H2.39902V10.5371C2.39902 10.8887 2.47291 11.152 2.61926 11.3193C2.75844 11.4788 2.9349 11.5528 3.17454 11.5528C3.40574 11.5528 3.58083 11.4785 3.72602 11.3186C3.87471 11.1549 3.94992 10.8918 3.94992 10.5371V7.7029H7.11837L8.83298 10.3321C8.9522 10.5059 9.07531 10.6813 9.19808 10.8533C9.30884 11.0078 9.42969 11.1439 9.55719 11.2576C9.67202 11.3604 9.79512 11.4357 9.92309 11.4817C10.0548 11.5291 10.2088 11.5532 10.3796 11.5532C10.8433 11.5532 11.3182 11.4112 11.3182 10.3584V7.7029H13.1797C13.4594 7.7029 13.6861 7.47615 13.6861 7.19648C13.6862 6.91681 13.4594 6.69006 13.1797 6.69006ZM9.80603 4.90104V6.69003H8.15622L6.97408 4.90104H9.80603ZM3.94994 2.84542L4.6303 3.88838H3.94994V2.84542ZM3.94994 6.69006V4.90106H5.29093L6.45782 6.69006H3.94994ZM9.80603 9.18708L8.82553 7.7029H9.80603V9.18708Z" fill="#898B8E"/>
</svg>
